<?xml version="1.0" encoding="UTF-8" standalone="no"?>
<!-- Created with Inkscape (http://www.inkscape.org/) -->

<svg
   version="1.1"
   id="svg148"
   width="32"
   height="32"
   viewBox="0 0 32 32"
   xmlns="http://www.w3.org/2000/svg"
   xmlns:svg="http://www.w3.org/2000/svg">
  <defs
     id="defs152" />
  <circle
     style="fill:#008000;stroke:none;stroke-width:1.44312;stroke-miterlimit:3.9;stroke-dashoffset:1.4;stroke-opacity:0.97683"
     id="path368"
     cx="16"
     cy="16"
     r="16" />
  <path
     d="m 16.576637,30.36378 h -1.562502 l -0.01563,-4.703125 q -1.640623,-0.03125 -3.281249,-0.375003 -1.640625,-0.359373 -3.296875,-1.062499 v -2.812499 q 1.59375,1 3.21875,1.515625 1.640624,0.5 3.374999,0.515625 v -7.125001 q -3.453124,-0.562498 -5.0312485,-1.906248 -1.5625,-1.343751 -1.5625,-3.687501 0,-2.546875 1.7031245,-4.015625 1.703125,-1.46875 4.890624,-1.6875 V 1.3481539 h 1.562502 V 4.973154 q 1.453125,0.0625 2.812499,0.3125 1.359374,0.234375 2.656251,0.65625 V 8.676279 Q 20.74851,8.020029 19.373512,7.660654 18.014137,7.301279 16.576637,7.238779 v 6.671875 q 3.546874,0.546874 5.218749,1.953125 1.671875,1.406249 1.671875,3.84375 0,2.640625 -1.781249,4.171875 -1.765625,1.515626 -5.109375,1.750001 z M 15.014136,13.629404 v -6.40625 q -1.8125,0.203125 -2.765625,1.03125 -0.953125,0.828125 -0.953125,2.203125 0,1.34375 0.875,2.093751 0.890625,0.749998 2.84375,1.078124 z m 1.562501,2.999999 v 6.765625 q 1.984375,-0.265624 2.984374,-1.124999 1.015626,-0.859375 1.015626,-2.265625 0,-1.375001 -0.96875,-2.1875 -0.953126,-0.812501 -3.03125,-1.187501 z"
     id="path2845"
     style="font-size:64px;-inkscape-font-specification:'sans-serif, Normal';fill:#ffffff;stroke:#000000;stroke-width:0.249448;stroke-miterlimit:3.9;stroke-dashoffset:1.4;stroke-opacity:0.97683" />
</svg>
