<?xml version="1.0" encoding="UTF-8" standalone="no"?>
<!-- Created with Inkscape (http://www.inkscape.org/) -->

<svg
   version="1.1"
   id="svg148"
   width="128"
   height="128"
   viewBox="0 0 128 128"
   xmlns="http://www.w3.org/2000/svg"
   xmlns:svg="http://www.w3.org/2000/svg">
  <defs
     id="defs152" />
  <circle
     style="fill:#008000;stroke:none;stroke-width:5.77247;stroke-miterlimit:3.9;stroke-dashoffset:1.4;stroke-opacity:0.97683"
     id="path368"
     cx="64"
     cy="64"
     r="64" />
  <path
     d="m 66.306547,121.45512 h -6.250005 l -0.0625,-18.8125 q -6.562493,-0.125 -13.124998,-1.50001 -6.5625,-1.437493 -13.1875,-4.249998 V 85.642615 q 6.375,3.999999 12.875,6.062502 6.562496,2 13.499996,2.062498 V 65.267614 Q 46.244046,63.017619 39.931546,57.64262 q -6.25,-5.375003 -6.25,-14.750004 0,-10.1875 6.8125,-16.0625 6.8125,-5.875 19.562496,-6.75 V 5.3926158 h 6.250005 V 19.892616 q 5.812502,0.25 11.249998,1.25 5.437496,0.9375 10.625002,2.625 v 10.9375 q -5.187506,-2.625 -10.687499,-4.0625 -5.437501,-1.4375 -11.187501,-1.6875 v 26.687499 q 14.187498,2.187498 20.874997,7.812502 6.687499,5.624994 6.687499,15.374998 0,10.562499 -7.124997,16.687499 -7.0625,6.062506 -20.437499,7.000006 z M 60.056542,54.517617 V 28.892616 q -7.249998,0.8125 -11.062496,4.125 -3.8125,3.3125 -3.8125,8.8125 0,5.375 3.5,8.375003 3.562499,2.999993 11.374996,4.312498 z m 6.250005,11.999995 v 27.0625 q 7.937503,-1.062495 11.937497,-4.499996 4.062503,-3.437501 4.062503,-9.0625 0,-5.500004 -3.875,-8.750002 -3.812502,-3.250003 -12.125,-4.750002 z"
     id="path2845"
     style="font-size:64px;-inkscape-font-specification:'sans-serif, Normal';fill:#ffffff;stroke:#000000;stroke-width:0.997794;stroke-miterlimit:3.9;stroke-dashoffset:1.4;stroke-opacity:0.97683" />
</svg>
