<?xml version="1.0" encoding="UTF-8" standalone="no"?>
<!-- Created with Inkscape (http://www.inkscape.org/) -->

<svg
   version="1.1"
   id="svg148"
   width="16"
   height="16"
   viewBox="0 0 16 16"
   xmlns="http://www.w3.org/2000/svg"
   xmlns:svg="http://www.w3.org/2000/svg">
  <defs
     id="defs152" />
  <circle
     style="fill:#008000;stroke:none;stroke-width:0.72156;stroke-miterlimit:3.9;stroke-dashoffset:1.4;stroke-opacity:0.97683"
     id="path368"
     cx="8"
     cy="8"
     r="8" />
  <path
     d="m 8.2883185,15.18189 h -0.781251 l -0.00781,-2.351563 Q 6.678941,12.814702 5.858628,12.642826 5.0383155,12.463139 4.2101905,12.111577 v -1.40625 q 0.796875,0.5 1.609375,0.757813 0.820312,0.25 1.6874995,0.257812 V 8.1584515 Q 5.780503,7.8772025 4.9914408,7.2053275 4.2101908,6.533452 4.2101908,5.361577 q 0,-1.2734375 0.8515622,-2.0078125 0.8515625,-0.734375 2.445312,-0.84375 V 0.67407695 H 8.288316 V 2.486577 q 0.7265625,0.03125 1.4062495,0.15625 0.6796865,0.1171875 1.3281255,0.328125 V 4.3381395 Q 10.374255,4.0100145 9.686756,3.830327 9.0070685,3.6506395 8.2883185,3.6193895 V 6.955327 q 1.7734375,0.273437 2.6093745,0.9765625 0.835938,0.7031245 0.835938,1.921875 0,1.3203125 -0.890625,2.0859375 -0.8828125,0.757813 -2.5546875,0.875001 z M 7.507068,6.814702 V 3.611577 Q 6.600818,3.7131395 6.1242555,4.127202 5.647693,4.5412645 5.647693,5.2287645 q 0,0.671875 0.4375,1.0468755 0.4453125,0.374999 1.421875,0.539062 z m 0.7812505,1.4999995 v 3.3828125 q 0.9921875,-0.132812 1.492187,-0.562499 0.5078135,-0.429688 0.5078135,-1.132813 0,-0.6875005 -0.4843755,-1.09375 -0.476563,-0.4062505 -1.515625,-0.5937505 z"
     id="path2845"
     style="font-size:64px;-inkscape-font-specification:'sans-serif, Normal';fill:#ffffff;stroke:#000000;stroke-width:0.124724;stroke-miterlimit:3.9;stroke-dashoffset:1.4;stroke-opacity:0.97683" />
</svg>
