<?xml version="1.0" encoding="UTF-8" standalone="no"?>
<!-- Created with Inkscape (http://www.inkscape.org/) -->

<svg
   version="1.1"
   id="svg148"
   width="64"
   height="64"
   viewBox="0 0 64 64"
   sodipodi:docname="uk.co.contrelec.cashflex.svg"
   inkscape:version="1.2.2 (732a01da63, 2022-12-09, custom)"
   xmlns:inkscape="http://www.inkscape.org/namespaces/inkscape"
   xmlns:sodipodi="http://sodipodi.sourceforge.net/DTD/sodipodi-0.dtd"
   xmlns="http://www.w3.org/2000/svg"
   xmlns:svg="http://www.w3.org/2000/svg">
  <defs
     id="defs152" />
  <sodipodi:namedview
     id="namedview150"
     pagecolor="#ffffff"
     bordercolor="#000000"
     borderopacity="0.25"
     inkscape:showpageshadow="2"
     inkscape:pageopacity="0.0"
     inkscape:pagecheckerboard="0"
     inkscape:deskcolor="#d1d1d1"
     showgrid="false"
     inkscape:zoom="8.7725435"
     inkscape:cx="15.274931"
     inkscape:cy="25.30623"
     inkscape:window-width="1920"
     inkscape:window-height="972"
     inkscape:window-x="0"
     inkscape:window-y="0"
     inkscape:window-maximized="1"
     inkscape:current-layer="svg148" />
  <circle
     style="fill:#008000;stroke:none;stroke-width:2.88622;stroke-miterlimit:3.9;stroke-dashoffset:1.4;stroke-opacity:0.97683"
     id="path368"
     cx="32"
     cy="32"
     r="32" />
  <path
     d="m 33.153273,60.727558 h -3.125 l -0.03125,-9.40625 q -3.28125,-0.0625 -6.5625,-0.75 -3.28125,-0.71875 -6.59375,-2.125 v -5.625 q 3.1875,2 6.4375,3.03125 3.28125,1 6.75,1.03125 v -14.25 q -6.90625,-1.125 -10.0625,-3.8125 -3.125,-2.6875 -3.125,-7.375 0,-5.09375 3.40625,-8.03125 3.40625,-2.9375 9.78125,-3.375 V 2.6963081 h 3.125 v 7.25 q 2.90625,0.1249999 5.625,0.6249999 2.71875,0.46875 5.3125,1.3125 v 5.46875 q -2.59375,-1.3125 -5.34375,-2.03125 -2.71875,-0.71875 -5.59375,-0.84375 v 13.34375 q 7.09375,1.09375 10.4375,3.90625 3.34375,2.8125 3.34375,7.6875 0,5.28125 -3.5625,8.34375 -3.53125,3.03125 -10.21875,3.5 z m -3.125,-33.46875 v -12.8125 q -3.625,0.40625 -5.53125,2.0625 -1.90625,1.65625 -1.90625,4.40625 0,2.6875 1.75,4.1875 1.78125,1.5 5.6875,2.15625 z m 3.125,6 v 13.53125 q 3.96875,-0.53125 5.96875,-2.25 2.03125,-1.71875 2.03125,-4.53125 0,-2.75 -1.9375,-4.375 -1.90625,-1.625 -6.0625,-2.375 z"
     id="path2845"
     style="font-size:64px;-inkscape-font-specification:'sans-serif, Normal';fill:#ffffff;stroke:#000000;stroke-width:0.498898;stroke-miterlimit:3.9;stroke-dashoffset:1.4;stroke-opacity:0.97683" />
</svg>
