<?xml version="1.0" encoding="utf-8"?>
<!-- Generator: Adobe Illustrator 22.1.0, SVG Export Plug-In . SVG Version: 6.00 Build 0)  -->
<svg version="1.1" id="Layer_1" xmlns="http://www.w3.org/2000/svg" xmlns:xlink="http://www.w3.org/1999/xlink" x="0px" y="0px"
	 viewBox="0 0 89 100" style="enable-background:new 0 0 89 100;" xml:space="preserve">
<style type="text/css">
	.st0{fill:#2075BC;stroke:#FFFFFF;stroke-width:1.4283;stroke-linecap:square;stroke-miterlimit:10;}
	.st1{fill:#414142;}
	.st2{fill:#FFFFFF;}
</style>
<g>
	<g>
		<g>
			<polygon class="st0" points="3.4,26.7 3.4,66 31.8,83 31.8,49.6 47.7,40.4 47.7,1.8 			"/>
			<g>
				<polygon class="st1" points="4.1,27.1 47,3 47,40 4.1,64.8 				"/>
				<path class="st2" d="M46.3,4.2v35.4L4.8,63.5v-36L46.3,4.2 M47.7,1.8L3.4,26.7V66l44.3-25.6V1.8L47.7,1.8z"/>
			</g>
		</g>
		<g>
			<polygon class="st0" points="85.6,73.3 85.6,34 57.2,17 57.2,50.4 41.3,59.6 41.3,98.2 			"/>
			<g>
				<polygon class="st1" points="42,60 84.9,35.2 84.9,72.9 42,97 				"/>
				<path class="st2" d="M84.2,36.5v36L42.7,95.8V60.4L84.2,36.5 M85.6,34L41.3,59.6v38.6l44.3-24.9V34L85.6,34z"/>
			</g>
		</g>
	</g>
</g>
</svg>
