<?xml version="1.0" encoding="UTF-8" standalone="no"?>
<!-- Created with Inkscape (http://www.inkscape.org/) -->

<svg
   version="1.1"
   id="svg148"
   width="256"
   height="256"
   viewBox="0 0 256 256"
   xmlns="http://www.w3.org/2000/svg"
   xmlns:svg="http://www.w3.org/2000/svg">
  <defs
     id="defs152" />
  <circle
     style="fill:#008000;stroke:none;stroke-width:11.5449;stroke-miterlimit:3.9;stroke-dashoffset:1.4;stroke-opacity:0.97683"
     id="path368"
     cx="128"
     cy="128"
     r="128" />
  <path
     d="m 132.61309,242.91023 h -12.5 l -0.125,-37.625 q -13.125,-0.25 -26.249998,-3 -13.125,-2.875 -26.375,-8.5 v -22.5 q 12.75,8 25.75,12.125 13.124998,4 26.999998,4.125 v -57 q -27.624998,-4.5 -40.249998,-15.25 -12.5,-10.75 -12.5,-29.499998 0,-20.375 13.625,-32.125 13.625,-11.75 39.124998,-13.5 v -29.375 h 12.5 v 29 q 11.625,0.5 22.5,2.5 10.875,1.875 21.25,5.25 v 21.875 q -10.375,-5.25 -21.375,-8.125 -10.875,-2.875 -22.375,-3.375 v 53.374998 q 28.375,4.375 41.75,15.625 13.375,11.25 13.375,30.75 0,21.125 -14.25,33.375 -14.125,12.125 -40.875,14 z m -12.5,-133.875 V 57.785232 q -14.5,1.625 -22.124998,8.25 -7.625,6.625 -7.625,17.625 0,10.75 7,16.749998 7.124998,6 22.749998,8.625 z m 12.5,24 v 54.125 q 15.875,-2.125 23.875,-9 8.125,-6.875 8.125,-18.125 0,-11 -7.75,-17.5 -7.625,-6.5 -24.25,-9.5 z"
     id="path2845"
     style="font-size:64px;-inkscape-font-specification:'sans-serif, Normal';fill:#ffffff;stroke:#000000;stroke-width:1.99559;stroke-miterlimit:3.9;stroke-dashoffset:1.4;stroke-opacity:0.97683" />
</svg>
